<?xml version="1.0" encoding="UTF-8"?>
<!-- Created with Inkscape (http://www.inkscape.org/) -->
<svg width="512" height="438.88" version="1.1" viewBox="0 0 512 438.88" xmlns="http://www.w3.org/2000/svg">
 <path d="m252.24 428.33c-13.966-0.27421-27.472-1.8408-40.785-4.7308-44.843-9.7341-85.459-34.266-115.21-69.584-17.499-20.775-30.742-44.646-39.041-70.376-1.2242-3.795-2.2297-7.2558-2.1355-7.3499 0.04846-0.0485 3.6826-0.0735 8.6691-0.0597l8.5856 0.0237 0.8178 2.5084c8.8084 27.018 23.157 51.29 42.618 72.09 27.833 29.749 64.347 49.892 104.15 57.456 12.19 2.3165 23.559 3.3797 36.14 3.3797s23.95-1.0632 36.14-3.3797c46.23-8.7851 87.651-34.402 116.56-72.084 13.261-17.288 23.402-36.576 30.211-57.462l0.81781-2.5084 8.5856-0.0237c4.9864-0.0138 8.6206 0.0113 8.6691 0.0597 0.0942 0.0942-0.9113 3.5549-2.1355 7.3499-12.491 38.723-36.121 73.019-67.988 98.675-15.719 12.656-33.292 23.018-51.98 30.651-22.355 9.1304-46.259 14.292-70.515 15.228-2.651 0.10222-9.823 0.18276-12.171 0.13667zm-55.325-48.313c-4.5046-0.37692-8.9546-1.8328-12.709-4.1578-4.476-2.772-7.7449-6.382-10.231-11.299-0.88806-1.7561-1.1591-2.4625-1.5686-4.0878-0.27942-1.1092-0.29239-1.2426-0.28895-2.973 4e-3 -1.7723 0.0108-1.8389 0.33343-3.0659 0.81443-3.0969 2.5422-5.4171 5.4651-7.3388 1.7156-1.128 4.8474-2.536 7.3689-3.3131 4.7768-1.4722 9.7639-2.2892 17.297-2.8339 2.0957-0.15153 11.095-0.15257 13.657-2e-3 4.5717 0.26939 8.1166 0.7163 12.217 1.5402 0.79244 0.15923 1.085 0.18666 1.1328 0.10621 0.0354-0.0597 0.10703-0.52402 0.15911-1.0319 0.5591-5.4525-0.32895-14.368-2.4981-25.079-1.0243-5.058-1.9701-9.6605-1.9896-9.6819-0.01-0.0109-0.7686 0.14617-1.686 0.34901-5.306 1.1732-10.663 1.9884-16.782 2.554-1.8057 0.16692-2.3108 0.12296-3.0023-0.26122-0.2779-0.15442-0.44191-0.34706-0.65033-0.76392-0.27783-0.55566-0.27872-0.5626-0.27872-2.1833 0-1.5697 9e-3 -1.6442 0.24924-2.1576 0.428-0.91319 0.91067-1.0925 3.6992-1.3743 5.6825-0.57417 12.096-1.5315 16.073-2.399l1.1613-0.25336-0.0103-0.60087c-6e-3 -0.33048-0.10455-1.6461-0.21979-2.9235-0.28729-3.1847-0.21538-4.5004 0.37577-6.875 0.49207-1.9766 1.6488-3.951 2.9385-5.0153 1.1174-0.92222 2.6448-1.7286 4.023-2.1239 2.4522-0.70342 5.2195-0.97862 7.1072-0.70681 1.2507 0.1801 2.9628 0.65574 3.8286 1.0636 1.6256 0.76585 3.4153 2.1718 4.3545 3.4207 1.0827 1.4399 1.8042 3.5352 1.8042 5.2396 0 1.0852-0.38751 2.6658-0.90681 3.6986-1.3898 2.7642-3.3554 4.5-7.4504 6.5794-2.5276 1.2835-2.9495 1.4514-5.653 2.2491-1.3131 0.38745-2.4198 0.73602-2.4592 0.7746-0.0394 0.0386 0.15626 1.1123 0.43486 2.3861 2.812 12.856 4.9622 30.904 4.2883 35.994-0.071 0.53653-0.12239 0.98112-0.11412 0.98797 8e-3 7e-3 0.51671 0.16807 1.1299 0.35824 1.4519 0.45031 4.7326 1.6733 6.397 2.3846 0.72276 0.3089 2.531 1.1576 4.0182 1.886l2.7041 1.3244-0.11624-0.6138c-0.27101-1.431-0.34801-2.7318-0.2941-4.9682 0.0679-2.8149 0.34367-5.1004 1.5038-12.461 0.49542-3.1434 0.92071-6.418 1.0772-8.2942 0.14289-1.7133 0.07-4.3449-0.15146-5.4712-0.14166-0.7203-0.15024-0.92801-0.0557-1.3471 0.28431-1.26 0.74426-1.5773 2.94-2.0286 1.2423-0.25532 1.4432-0.27445 1.8581-0.17691 1.2412 0.29183 1.557 0.66917 1.8976 2.2674 0.1089 0.51097 0.21637 0.98083 0.23882 1.0441 0.0279 0.0786 0.37236-0.0476 1.0853-0.39751 0.64561-0.31685 1.8797-0.78166 3.2318-1.2172 1.203-0.38754 2.1968-0.71284 2.2084-0.72291 0.0116-0.0101 0.12783-1.1864 0.25835-2.6141 0.97644-10.681 1.9915-16.941 3.5016-21.595 0.39407-1.2146 1.3397-3.2146 1.9327-4.0879 0.74136-1.0917 1.8574-1.8134 3.2365-2.0928 0.72982-0.14788 0.78328-0.1464 1.6228 0.0448 1.4887 0.33913 3.0912 1.3955 4.0422 2.6645 1.425 1.9016 2.3719 4.5537 2.9479 8.256 0.2033 1.3068 0.28193 4.7595 0.1421 6.2401-0.2968 3.1424-1.1399 6.6682-2.0116 8.4121-0.41801 0.83631-0.5301 0.96515-1.0843 1.2462-0.24272 0.12308-0.4413 0.24053-0.4413 0.26097 0 0.0204 0.14646 0.47488 0.32546 1.0098 0.56957 1.7021 0.70177 2.3528 0.58757 2.8918-0.11632 0.54912-0.35682 1.0582-0.60121 1.2727-0.33111 0.29063-0.80953 0.47061-3.5492 1.3352-3.1525 0.99485-4.3808 1.4196-4.5352 1.5683-0.10268 0.0989-0.55091 5.162-0.7741 8.7441-0.16716 2.6827-0.21309 6.4282-0.10442 8.5136 0.25124 4.8211 0.69266 7.7954 1.6461 11.092 0.56014 1.9365 0.56229 2.5792 0.0114 3.3966-0.32022 0.47518-0.81188 0.69754-2.3639 1.0691-1.5978 0.38253-1.9178 0.37828-2.7359-0.0363-0.67454-0.34181-0.8898-0.77787-1.408-2.8522-1.7408-6.9685-2.1128-13.544-1.3969-24.691 0.0846-1.3168 0.13141-2.4165 0.10407-2.4439-0.0273-0.0273-0.5665 0.14728-1.1982 0.38802-1.7449 0.66506-2.3396 0.80085-2.9601 0.67589-0.76827-0.15475-1.5794-0.6358-1.5794-0.93667 0-0.0576-0.0227-0.0821-0.0504-0.0544s-0.19301 1.1739-0.36732 2.5472-0.6722 4.6916-1.1064 7.3743c-1.1354 7.0146-1.263 8.1123-1.263 10.864 0 1.9195 0.18385 3.3596 0.56227 4.4043 0.41659 1.15 0.91548 1.67 2.2249 2.3187 0.93241 0.46196 0.98659 0.50518 1.2264 0.97844 0.38196 0.75375 0.40279 1.1286 0.13573 2.4411-0.17985 0.88386-0.20882 1.1766-0.12466 1.2591 0.0603 0.0591 0.70434 0.42419 1.4312 0.81122 8.6651 4.6139 18.861 8.5928 27.503 10.733 3.3776 0.83643 8.1869 1.7157 11.728 2.1442 7.4909 0.90644 15.254 0.81155 23.459-0.28672 2.9023-0.38848 8.6854-1.4215 12.936-2.3106 1.6081-0.3364 1.836-0.36367 2.2762-0.27238 0.7481 0.15515 1.2432 0.4829 1.5002 0.9931 0.29804 0.59166 0.66354 1.6266 0.89607 2.5374 0.16777 0.65709 0.1781 0.81591 0.0812 1.2488-0.21883 0.97779-0.67302 1.4622-1.6167 1.7243-1.185 0.32912-7.4915 1.8157-8.826 2.0805-4.1094 0.81532-9.9522 1.4737-15.329 1.7272-2.9101 0.13724-9.3064 0.0597-11.985-0.14538-10.425-0.79797-20.602-3.109-29.172-6.6246-2.4274-0.99568-7.6841-3.1992-8.826-3.6997-2.2668-0.99353-7.4841-3.6705-11.52-5.911-6.69-3.7136-9.4351-5.1102-13.1-6.6641-2.7921-1.184-7.4543-2.8566-7.6998-2.7624-0.0656 0.0252-0.23704 0.37379-0.38103 0.77472-0.41926 1.1674-1.3003 3.1204-2.131 4.7239-3.4591 6.6766-8.1935 12.269-13.976 16.508-3.0034 2.202-6.9658 4.2752-10.059 5.2628-1.8939 0.60481-4.5239 1.1864-6.353 1.4049-0.90529 0.10814-4.0773 0.19432-4.8311 0.13124zm4.69-6.6796c2.6652-0.37877 5.8712-1.5375 8.6033-3.1094 2.7719-1.5948 5.3628-3.5816 7.8726-6.0369 3.6125-3.534 6.5592-7.5249 8.3436-11.3 0.6043-1.2785 1.3814-3.1832 1.3814-3.3859 0-0.19526-0.15915-0.23488-2.5666-0.63901-4.949-0.83077-8.1111-1.0889-15.085-1.2315-4.7411-0.0969-5.6869-0.0915-8.4079 0.048-7.2588 0.37227-11.518 1.1328-15.794 2.8198-2.9574 1.1669-4.837 2.4006-6.0191 3.9508-0.77393 1.0149-0.93747 1.5852-0.87364 3.0462 0.12249 2.8034 1.0232 4.9795 3.1338 7.5718 1.7303 2.1251 3.7404 3.8529 6.2105 5.3384 1.1033 0.66347 1.688 0.93974 3.4478 1.629 1.9007 0.74448 3.465 1.1414 5.435 1.379 0.78058 0.0942 3.4385 0.0447 4.3184-0.0803zm73.449-60.588 1.8692-0.62059-0.42318-0.28523c-0.48996-0.33024-0.72021-0.6862-0.90729-1.4026-0.1315-0.50354-0.12684-0.53935 0.2868-2.2057 0.46613-1.8778 0.81549-3.8244 0.98293-5.4766 0.14872-1.4674 0.0728-4.8636-0.13344-5.9722-0.17456-0.93824-0.42802-1.8116-0.52572-1.8116-0.10331 0-0.70098 1.8849-1.0615 3.3477-0.81779 3.3182-1.4707 7.611-1.9501 12.821-0.15652 1.7011-0.17404 2.2265-0.0743 2.2265 0.037 0 0.90841-0.27927 1.9365-0.6206zm-42.603-14.851c4.2247-1.5306 6.4703-2.7326 8.1524-4.364 0.74016-0.7178 0.7663-0.75767 0.76167-1.1613-7e-3 -0.5843-0.33628-1.3824-0.86696-2.0994-0.86899-1.1741-1.6534-1.5114-3.7026-1.5923-1.5467-0.061-2.4019 0.0596-3.5629 0.50254-0.97869 0.37339-1.775 0.95133-2.1186 1.5376-0.45176 0.77087-0.76745 3.5759-0.66687 5.9253 0.0339 0.79202 0.085 1.5338 0.11357 1.6484 0.0646 0.25928 0.0997 0.25192 1.8902-0.39678zm-69.507 69.14c-0.49268-0.18424-1.0231-0.50721-3.0514-1.8578-4.3548-2.8999-7.6509-5.2799-7.966-5.752-0.75728-1.1348-0.61828-2.6888 0.32607-3.6455 0.53137-0.53833 1.1468-0.78938 1.9378-0.79046 0.36403-9.3e-4 0.84336 0.0631 1.0652 0.14139 0.22182 0.0783 0.99006 0.5669 1.7072 1.0859 2.0856 1.5093 4.2117 2.9773 6.5066 4.4925 1.1752 0.77598 2.2494 1.5308 2.3871 1.6774s0.36223 0.51141 0.49911 0.8107c0.21915 0.47914 0.2438 0.62897 0.20646 1.2542-0.067 1.1206-0.58351 1.9316-1.5232 2.3913-0.61204 0.29944-1.5728 0.38769-2.0949 0.19244zm185.11-0.72096c-0.60236-0.23161-1.1869-0.79168-1.4774-1.4156-0.31556-0.67775-0.31711-1.7698-3e-3 -2.4314 0.30858-0.6508 0.68742-0.97294 2.7509-2.3391 2.2648-1.4995 3.548-2.3928 5.8766-4.0909 2.1899-1.597 2.4642-1.7365 3.4139-1.7365 1.189 0 2.0758 0.56572 2.5527 1.6284 0.22912 0.51055 0.25202 0.6516 0.21503 1.325-0.0454 0.82672-0.24219 1.3263-0.70436 1.7881-0.91625 0.91547-9.8009 7.0407-10.646 7.3391-0.51472 0.18189-1.4098 0.15151-1.9784-0.0672zm-60.698-12.598c-0.74941-0.12688-2.0344-0.53237-2.6202-0.82685-1.8095-0.90958-2.8786-2.0138-3.8593-3.986-0.5293-1.0644-0.757-1.719-1.0988-3.1588-0.4903-2.0652-0.51665-2.3394-0.56824-5.9149l-0.0491-3.4065-0.65432-0.7278c-2.4519-2.7273-4.4251-5.7253-4.857-7.3798-0.20471-0.78406-0.14437-1.6572 0.16047-2.3221 0.13143-0.28672 0.58584-0.90092 1.0589-1.4313 1.0158-1.1389 1.5854-1.4749 2.5004-1.4749 0.45567 0 0.69687 0.0585 1.1261 0.27291l0.5462 0.27291 0.73033 1.4715c0.40169 0.80933 0.76174 1.4364 0.80011 1.3936 0.0384-0.0429 0.25907-0.74686 0.49042-1.5644 0.58335-2.0615 0.97765-3.0922 1.8878-4.9346 1.103-2.2329 1.8815-3.3764 3.1922-4.6889 0.92518-0.92644 1.1912-1.135 1.911-1.4979 0.83478-0.4209 1.9059-0.72524 2.5431-0.72254 1.0279 4e-3 2.842 0.76382 3.6184 1.5149 0.75051 0.72599 1.8824 2.7026 2.3238 4.058 0.34982 1.0741 0.85094 3.2705 0.99628 4.3665 0.17231 1.2995 0.19507 4.0564 0.0445 5.3885-0.32665 2.8894-1.1679 5.4404-2.4419 7.4044-1.212 1.8686-3.061 3.1676-5.3635 3.7682-0.93905 0.24494-1.2354 0.28016-2.4174 0.28726-0.74092 4e-3 -1.4621-0.0228-1.6026-0.0605l-0.25549-0.0685v0.61779c0 0.89077 0.25522 2.368 0.57604 3.3342 0.48219 1.4521 0.77863 1.9761 1.5639 2.7639 0.70909 0.71146 0.72328 0.72001 1.1948 0.72001 0.32821 0 0.72461-0.0998 1.2701-0.31974 1.1702-0.47186 1.8441-0.87753 3.4617-2.0838 3.0468-2.272 3.3698-2.4791 4.1506-2.661 0.55655-0.12965 1.1805-0.0156 1.8154 0.33187 0.38596 0.21122 0.46506 0.32707 1.1575 1.6953 0.71193 1.4067 0.7431 1.4948 0.74 2.0904-6e-3 1.1642-0.25239 1.5539-1.5588 2.4666-0.46943 0.32794-1.3761 1.0258-2.0148 1.5508-1.4006 1.1512-2.1023 1.6161-3.3631 2.2279-0.97266 0.47201-2.7354 0.97116-4.2264 1.1968-0.63932 0.0967-2.4208 0.11907-2.9087 0.0365zm0.89658-20.939c1.1345-0.54918 2.066-2.3148 2.4033-4.5548 0.17056-1.133 0.1957-3.624 0.0496-4.9147-0.11272-0.99569-0.28468-1.8581-0.37049-1.8581-0.10264 0-0.56736 0.77088-0.98012 1.6258-1.0994 2.2772-2.1014 5.2503-2.6956 7.9987-0.32275 1.4928-0.31625 1.588 0.1161 1.7001 0.35568 0.0922 0.70798 0.16031 0.94618 0.18292 0.0733 7e-3 0.31226-0.074 0.53106-0.17993zm-143.86 20.594c-0.21852-0.0713-0.51117-0.20348-0.65034-0.29369-0.68174-0.44184-4.3915-3.7152-7.305-6.4457-1.7641-1.6532-2.0703-1.9816-2.2993-2.4657-0.21803-0.46087-0.26421-0.68166-0.26427-1.2636 0-1.6396 1.1413-2.777 2.7871-2.777 1.1106 0 1.3534 0.15587 3.7884 2.4327 2.0781 1.9431 4.2995 3.9341 6.074 5.4439 0.99008 0.84241 1.229 1.1738 1.44 1.9974 0.43714 1.7063-0.80723 3.3595-2.6101 3.4676-0.32456 0.0195-0.73142-0.0212-0.96041-0.0959zm222.3-0.75634c-0.65925-0.20663-1.302-0.75495-1.6242-1.3856-0.24821-0.48582-0.28012-0.64002-0.27814-1.3445 3e-3 -1.0448 0.24127-1.5205 1.1791-2.3534 0.37222-0.33055 1.283-1.1374 2.0239-1.793 1.6313-1.4434 3.4266-3.1076 5.1098-4.7363 1.5422-1.4924 1.8574-1.669 2.973-1.6659 0.67163 2e-3 0.85914 0.0389 1.2542 0.24747 1.0396 0.5488 1.5282 1.3592 1.53 2.5375 2e-3 1.103-0.18156 1.4174-1.6827 2.8874-2.421 2.3707-7.2293 6.718-8.0388 7.2681-0.68927 0.46837-1.6201 0.59707-2.446 0.33818zm-238.77-15.214c-0.23247-0.0653-0.57594-0.21348-0.76329-0.32927-0.84602-0.52287-8.1234-9.1308-8.5704-10.137-0.26995-0.60785-0.24588-1.6592 0.0522-2.2789 0.88186-1.8333 3.3122-2.1864 4.6932-0.68188 0.20353 0.22174 0.80587 0.94666 1.3385 1.6109 1.3114 1.6355 3.1862 3.8482 4.9102 5.7952 1.6722 1.8886 1.8723 2.237 1.8736 3.2631 2e-3 1.5566-1.0165 2.6832-2.5539 2.8254-0.33235 0.0308-0.72808 4e-3 -0.98009-0.0672zm255.06-0.95403c-0.53527-0.19709-1.1979-0.80585-1.4965-1.3747-0.21371-0.40724-0.24998-0.59003-0.2511-1.2657-2e-3 -1.0266 0.16597-1.3686 1.2887-2.6286 1.323-1.4848 3.6849-4.2954 5.2079-6.1973 1.7187-2.1462 1.9178-2.3542 2.5038-2.6159 0.66096-0.29516 1.6813-0.29531 2.3418 0 1.4067 0.62818 2.0566 2.3468 1.4126 3.7354-0.34748 0.74923-4.788 6.2068-7.3266 9.0045-1.1231 1.2377-1.4453 1.4258-2.5015 1.46-0.53841 0.0174-0.91532-0.02-1.1793-0.11722zm-269.61-17.193c-0.70974-0.2515-1.169-0.78258-2.7875-3.223-1.9786-2.9836-4.2029-6.5462-4.7941-7.6787-0.45423-0.87016-0.45926-0.88921-0.41784-1.5794 0.0519-0.86466 0.34753-1.4916 0.95572-2.027 0.52237-0.4598 1.1033-0.66908 1.8574-0.66908 1.2266 0 1.9367 0.48958 2.7892 1.9232 1.0587 1.7803 2.8557 4.6158 4.4129 6.963 1.7354 2.6159 1.9236 3.0214 1.818 3.9193-0.12204 1.0384-0.63852 1.7793-1.5619 2.2408-0.47902 0.23937-0.66814 0.28193-1.2252 0.27573-0.3623-4e-3 -0.8333-0.0692-1.0467-0.1448zm283.85-0.92309c-0.71876-0.26335-1.2366-0.74429-1.5931-1.4797-0.29038-0.599-0.31641-1.747-0.0527-2.3226 0.0936-0.20439 0.777-1.2914 1.5186-2.4155 1.4611-2.2149 3.0798-4.8027 4.1552-6.6427 0.77357-1.3236 1.1565-1.7706 1.8165-2.1203 0.3973-0.21054 0.57881-0.24616 1.2542-0.24616s0.85692 0.0356 1.2542 0.24616c0.58291 0.3089 1.0954 0.83554 1.34 1.3771 0.2288 0.50651 0.2633 1.6957 0.0631 2.1748-0.32575 0.77963-3.13 5.3316-5.2708 8.5557-1.5414 2.3214-1.7908 2.5984-2.5957 2.8824-0.48471 0.17102-1.4102 0.16656-1.8896-9e-3zm-143.37-5.1343c-0.94393-0.32625-1.1908-0.64971-1.6425-2.1519-0.5053-1.6805-0.55037-1.9379-0.42939-2.4522 0.23905-1.0164 0.56776-1.4031 1.4644-1.7229 0.28957-0.10326 0.79825-0.32926 1.1304-0.50222 0.8643-0.45006 1.3856-0.55931 2.0321-0.42591 0.90323 0.18638 1.1328 0.36214 1.9984 1.5303 1.2059 1.6274 1.3704 2.4403 0.74486 3.6817-0.17709 0.35148-0.3294 0.49411-0.80147 0.75058-0.32055 0.17416-0.89638 0.48845-1.2796 0.69844-0.74612 0.40883-1.8802 0.76676-2.4137 0.76182-0.17987-2e-3 -0.54142-0.0771-0.80344-0.1677zm-152.23-13.759c-0.89247-0.3489-1.1086-0.61204-2.0725-2.5239-1.1162-2.2138-2.091-4.2952-3.4545-7.3762-1.2386-2.7987-1.3252-3.1786-0.95336-4.1807 0.26436-0.71241 0.97308-1.4364 1.6228-1.6578 0.67667-0.23056 1.6585-0.20191 2.232 0.0651 0.8189 0.38134 1.2034 0.9259 2.0819 2.9485 1.0599 2.4403 1.8539 4.1572 3.1949 6.909 1.0787 2.2134 1.1317 2.3493 1.164 2.9892 0.049 0.97124-0.15803 1.5237-0.81355 2.1704-0.61033 0.60213-1.1828 0.83981-2.0058 0.83272-0.31016-3e-3 -0.75193-0.0808-0.99589-0.17621zm307.26-0.98223c-1.147-0.38011-1.9008-1.4471-1.8978-2.686 2e-3 -0.73039-0.11153-0.45075 1.9352-4.7748 0.53977-1.1403 1.3825-3.0008 1.8728-4.1343 1.5547-3.5945 1.5984-3.6658 2.5323-4.1244 0.71438-0.35081 1.7888-0.37031 2.4503-0.0445 1.2109 0.59647 1.8846 1.9781 1.5712 3.2226-0.20897 0.82988-2.9375 6.9259-4.5119 10.08-0.78452 1.5719-1.0666 1.9384-1.7689 2.299-0.57786 0.29666-1.5576 0.36935-2.1833 0.162zm-316.04-20.151c-0.76192-0.24868-1.3167-0.7122-1.6616-1.3882-0.12646-0.24789-0.20749-0.50919-0.18006-0.58066 0.04111-0.10714 0.51535-0.12995 2.7006-0.12995 2.606 0 2.6507 3e-3 2.6507 0.1895 0 0.53282-0.73064 1.4174-1.4532 1.7594-0.55802 0.26412-1.4968 0.33257-2.0564 0.14993zm324.73-1.1725c-0.46754-0.17996-1.0682-0.64563-1.0682-0.82815 0-0.0661 0.70021-0.0981 2.1436-0.0981 1.9437 0 2.1408 0.0143 2.1136 0.15354-0.0396 0.20234-0.8345 0.74505-1.2674 0.86528-0.53265 0.14794-1.4062 0.10588-1.9217-0.0925zm-393.78-6.5637c-0.5618-0.20644-1.3252-0.99501-1.5218-1.5719-0.19291-0.56614-0.19291-1.5523 0-2.1184 0.21216-0.62267 0.96462-1.3745 1.5687-1.5674 0.42394-0.13536 20.471-0.1537 232.23-0.21244 222.39-0.0617 231.78-0.0576 232.26 0.10169 0.64237 0.21336 1.388 0.95008 1.6044 1.5852 0.19291 0.56614 0.19291 1.5523 0 2.1184-0.21216 0.62266-0.96462 1.3745-1.5687 1.5674-0.42399 0.13539-20.453 0.1526-232.31 0.19961-215.48 0.0478-231.87 0.0406-232.26-0.10215zm133.78-18.004c-1.9467-0.3162-3.4619-0.80663-5.2389-1.6958-2.0958-1.0486-3.3891-1.9691-4.9332-3.511-2.3602-2.3569-4.1578-5.5266-4.9669-8.7579-0.4861-1.9414-0.46482-0.6875-0.4654-27.408l-9.3e-4 -24.833 0.22804-0.22805c0.21589-0.21588 0.28544-0.22803 1.3049-0.22803 1.0195 0 1.089 0.0121 1.3049 0.22803l0.22804 0.22805 3e-3 23.625c2e-3 13.073 0.0408 24.271 0.0877 25.071 0.13492 2.3017 0.56159 3.9802 1.4889 5.8572 2.1455 4.3427 5.918 7.3327 10.567 8.3749 0.79209 0.17758 1.1824 0.20325 3.0899 0.20325s2.2978-0.0257 3.0899-0.20325c4.6491-1.0422 8.4217-4.0322 10.567-8.3749 0.92728-1.877 1.3539-3.5555 1.4889-5.8572 0.0469-0.79997 0.086-11.998 0.0877-25.071l3e-3 -23.625 0.22803-0.22805c0.21589-0.21588 0.28544-0.22803 1.3049-0.22803s1.089 0.0121 1.3049 0.22803l0.22803 0.22805-9.3e-4 24.833c-9.2e-4 26.721 0.0207 25.467-0.46539 27.408-0.60627 2.4213-1.8398 4.9435-3.4566 7.0673-1.1196 1.4708-3.0298 3.2098-4.6318 4.2168-1.0138 0.6372-3.0216 1.602-4.0501 1.9462-1.941 0.64951-2.8845 0.79548-5.3726 0.83117-1.5944 0.0229-2.4556-5e-3 -3.0225-0.0968zm-109.53-0.0141c-4.0684-0.48125-6.6052-1.2227-9.5692-2.7968-1.202-0.63837-2.7763-1.6716-3.7627-2.4696-1.0878-0.88008-2.7857-2.6579-3.6468-3.8184-1.8641-2.5124-3.3298-5.9487-3.8865-9.1117-0.21801-1.2388-0.14595-1.6922 0.30134-1.896 0.12451-0.0567 0.6541-0.10315 1.1768-0.10315 1.3574 0 1.359 2e-3 1.6929 1.7652 0.26757 1.413 1.2797 4.2503 1.9206 5.3837 1.8816 3.3278 4.7116 6.0086 8.2226 7.789 2.1175 1.0738 3.7716 1.605 6.2038 1.9922 1.18 0.18786 1.6325 0.20717 4.8775 0.20819 2.8315 9.3e-4 3.8963-0.0339 5.1098-0.16709 5.8716-0.64425 9.4372-1.9366 11.908-4.3159 2.1062-2.0284 3.0219-4.2888 3.1201-7.7022 0.05327-1.8515-0.05036-2.7614-0.45306-3.9776-0.48517-1.4654-1.214-2.4904-2.5423-3.5758-3.0704-2.5089-7.1476-4.1033-16.399-6.4129-6.6366-1.6568-12.775-3.5755-15.295-4.7807-3.4277-1.6392-5.9126-4.0263-7.5944-7.2955-0.70435-1.3692-1.0626-2.3498-1.4113-3.8629-0.34088-1.4794-0.42694-4.1875-0.18259-5.7457 0.70057-4.4676 3.2376-8.4225 7.1578-11.158 3.2066-2.2377 6.8594-3.6654 11.23-4.3894 1.4157-0.2345 1.672-0.24816 4.7025-0.25064 2.648-2e-3 3.391 0.0266 4.2736 0.16565 7.075 1.1143 12.491 4.4334 15.801 9.6842 1.4728 2.336 2.5941 5.1374 3.285 8.2067 0.26414 1.1734 0.28663 1.4748 0.13493 1.8078-0.15728 0.34519-0.46693 0.43269-1.5313 0.43269-1.2576 0-1.3263-0.0578-1.6123-1.355-0.98435-4.4654-2.6588-7.7226-5.3522-10.411-2.6666-2.662-5.9873-4.3228-10.075-5.0389-1.9033-0.33344-3.1301-0.40933-5.751-0.35574-4.2182 0.0862-6.6951 0.59639-9.9035 2.0398-4.2898 1.9299-7.4003 5.1594-8.6236 8.9535-0.49704 1.5416-0.63165 2.2811-0.68611 3.7691-0.07958 2.1742 0.32987 4.0541 1.3044 5.9889 1.1966 2.3756 3.4314 4.5528 5.9901 5.8357 1.1268 0.56495 1.9786 0.88415 5.0847 1.9053 3.3446 1.0996 5.3254 1.6676 9.612 2.7565 5.379 1.3664 8.8961 2.4258 11.51 3.4672 2.8493 1.1351 5.4861 2.7332 7.1835 4.3537 1.3036 1.2445 2.1198 2.5098 2.6711 4.1407 0.53876 1.5939 0.60743 2.1202 0.60743 4.6558 0 2.0845-0.02266 2.4322-0.22098 3.391-0.62282 3.0112-1.8273 5.296-3.7514 7.1158-2.8688 2.7133-7.2051 4.2944-13.772 5.0217-1.2351 0.13678-8.2147 0.26098-9.0582 0.16119zm54.522-0.11995-0.21933-0.17759-0.0465-31.542c-0.0255-17.348-0.0813-31.577-0.12385-31.619-0.0426-0.0426-5.0318-0.0983-11.087-0.12387l-11.01-0.0465-0.17758-0.21933c-0.1517-0.18736-0.17758-0.37416-0.17758-1.2817 0-1.004 0.01251-1.0749 0.22804-1.2904l0.22804-0.22803h47.213l0.22804 0.22803c0.21552 0.21553 0.22804 0.28635 0.22804 1.2904 0 0.9075-0.0259 1.0943-0.17759 1.2817l-0.17758 0.21933-10.963 0.0465c-6.0298 0.0256-10.998 0.0813-11.041 0.12387-0.0426 0.0426-0.0983 14.271-0.12385 31.619l-0.0465 31.542-0.21933 0.17759c-0.18697 0.1514-0.37391 0.1776-1.2672 0.1776-0.89325 0-1.0802-0.0262-1.2672-0.1776zm90.401 4e-3 -0.22398-0.18137-0.0596-32.27c-0.0328-17.748-0.0891-32.512-0.12506-32.809-0.0772-0.63717 0.0459-1.0141 0.38113-1.1668 0.16697-0.0761 3.1886-0.10495 10.98-0.10495 11.281 0 11.836 0.017 13.908 0.42593 6.0216 1.1885 11.297 4.0247 15.702 8.4417 2.5882 2.5954 4.3867 5.1181 6.1319 8.6008 1.8172 3.6263 2.9015 7.1694 3.4456 11.258 0.23237 1.7464 0.28317 6.2172 0.0924 8.1332-0.81651 8.201-4.3502 15.881-9.8009 21.3-2.5277 2.5133-4.9964 4.2674-8.2314 5.8487-2.5435 1.2433-4.8489 1.9394-8.2221 2.4826-0.86908 0.13995-2.2181 0.16063-12.365 0.18952-11.183 0.0318-11.393 0.0291-11.613-0.14894zm20.633-2.9825c2.0973-0.10293 3.3474-0.27678 5.1098-0.71063 7.5717-1.8639 14.261-7.4002 18.112-14.991 1.886-3.717 2.9778-7.4786 3.3442-11.522 0.12338-1.3616 0.12526-4.5728 3e-3 -5.8995-0.38011-4.1398-1.389-7.7411-3.1884-11.381-1.4039-2.8398-3.0616-5.1925-5.2637-7.4705-4.1184-4.2603-9.2256-7.093-14.494-8.0392-2.2478-0.40365-2.7938-0.42253-12.232-0.42308-4.965 0-9.0621 0.0343-9.1047 0.0769-0.0854 0.0853-0.16233 59.574-0.0776 60.049 0.0303 0.17037 0.12027 0.31347 0.21218 0.33762 0.3066 0.0805 15.876 0.0566 17.579-0.027zm44.079 2.9283-0.22803-0.22805v-65.794l0.22803-0.22805 0.22805-0.22803h33.463l0.22804 0.22803c0.21552 0.21553 0.22804 0.28635 0.22804 1.2904 0 0.90752-0.0259 1.0943-0.17759 1.2817l-0.1776 0.21933-15.376 0.0465c-8.457 0.0256-15.411 0.0813-15.454 0.12387-0.10121 0.10123-0.10121 28.359 0 28.46 0.0426 0.0426 6.3487 0.0983 14.014 0.12387l13.936 0.0465 0.1776 0.21933c0.15139 0.18697 0.17759 0.37392 0.17759 1.2672 0 0.89322-0.0262 1.0802-0.17759 1.2672l-0.1776 0.21933-13.936 0.0465c-7.6649 0.0255-13.971 0.0813-14.014 0.12387-0.10121 0.10123-0.10121 28.452 0 28.553 0.0426 0.0426 6.9967 0.0983 15.454 0.12387l15.376 0.0465 0.1776 0.21933c0.1517 0.18736 0.17759 0.37414 0.17759 1.2817 0 1.004-0.0125 1.0749-0.22804 1.2904l-0.22804 0.22803h-33.463zm48.496 0-0.22804-0.22805v-65.794l0.22804-0.22805c0.21766-0.21765 0.28061-0.22803 1.3833-0.22803 0.96337 0 1.1879 0.027 1.3519 0.16258 0.10817 0.0894 6.6793 12.809 14.603 28.266s14.727 28.728 15.12 29.491l0.71378 1.3868 0.0615-0.45778c0.0339-0.25179 0.0652-13.493 0.0697-29.425l8e-3 -28.967 0.22803-0.22805c0.2159-0.21588 0.28545-0.22803 1.3049-0.22803 1.0195 0 1.089 0.0121 1.3049 0.22803l0.22804 0.22805v65.794l-0.22804 0.22805c-0.21778 0.21777-0.28029 0.22803-1.3884 0.22803-1.0745 0-1.1771-0.0155-1.3861-0.20904-0.12417-0.11497-7.0143-13.458-15.311-29.652l-15.086-29.443-0.0615 0.45667c-0.0338 0.25116-0.0652 13.492-0.0697 29.424l-8e-3 28.967-0.22803 0.22805c-0.2159 0.21588-0.28545 0.22803-1.3049 0.22803-1.0195 0-1.089-0.0121-1.3049-0.22803zm73.34 0.0504-0.21933-0.17759-0.0465-31.542c-0.0256-17.348-0.0813-31.577-0.12385-31.619-0.0426-0.0426-5.0318-0.0983-11.087-0.12387l-11.01-0.0465-0.17758-0.21933c-0.1517-0.18736-0.17759-0.37416-0.17759-1.2817 0-1.004 0.0125-1.0749 0.22804-1.2904l0.22805-0.22803h47.213l0.22804 0.22803c0.21552 0.21553 0.22804 0.28635 0.22804 1.2904 0 0.9075-0.0259 1.0943-0.17759 1.2817l-0.17758 0.21933-10.963 0.0465c-6.0298 0.0256-10.998 0.0813-11.041 0.12387-0.0426 0.0426-0.0983 14.271-0.12385 31.619l-0.0464 31.542-0.21933 0.17759c-0.18697 0.1514-0.37391 0.1776-1.2672 0.1776-0.89325 0-1.0802-0.0262-1.2672-0.1776zm60.401 0.11995c-4.0684-0.48125-6.6052-1.2227-9.5692-2.7968-1.202-0.63837-2.7763-1.6716-3.7627-2.4696-1.0878-0.88008-2.7857-2.6579-3.6468-3.8184-1.8641-2.5124-3.3298-5.9487-3.8865-9.1117-0.21801-1.2388-0.14595-1.6922 0.30134-1.896 0.12452-0.0567 0.6541-0.10315 1.1768-0.10315 1.3574 0 1.359 2e-3 1.6929 1.7652 0.26757 1.413 1.2797 4.2503 1.9206 5.3837 1.8816 3.3278 4.7116 6.0086 8.2226 7.789 2.1175 1.0738 3.7716 1.605 6.2038 1.9922 1.18 0.18786 1.6325 0.20717 4.8775 0.20819 2.8315 9.3e-4 3.8963-0.0339 5.1098-0.16709 5.8716-0.64425 9.4372-1.9366 11.908-4.3159 2.1062-2.0284 3.0219-4.2888 3.1201-7.7022 0.0533-1.8515-0.0504-2.7614-0.45306-3.9776-0.48518-1.4654-1.214-2.4904-2.5423-3.5758-3.0704-2.5089-7.1476-4.1033-16.399-6.4129-6.6366-1.6568-12.775-3.5755-15.295-4.7807-3.4277-1.6392-5.9126-4.0263-7.5944-7.2955-0.70435-1.3692-1.0626-2.3498-1.4113-3.8629-0.34088-1.4794-0.42695-4.1875-0.1826-5.7457 0.70057-4.4676 3.2376-8.4225 7.1578-11.158 3.2066-2.2377 6.8594-3.6654 11.23-4.3894 1.4157-0.2345 1.672-0.24816 4.7026-0.25064 2.648-2e-3 3.391 0.0266 4.2736 0.16565 7.075 1.1143 12.491 4.4334 15.801 9.6842 1.4728 2.336 2.5941 5.1374 3.285 8.2067 0.26414 1.1734 0.28663 1.4748 0.13492 1.8078-0.15728 0.34519-0.46692 0.43269-1.5313 0.43269-1.2576 0-1.3263-0.0578-1.6122-1.355-0.98435-4.4654-2.6588-7.7226-5.3522-10.411-2.6666-2.662-5.9873-4.3228-10.075-5.0389-1.9033-0.33344-3.1301-0.40933-5.751-0.35574-4.2182 0.0862-6.6951 0.59639-9.9036 2.0398-4.2898 1.9299-7.4003 5.1594-8.6236 8.9535-0.49703 1.5416-0.63164 2.2811-0.6861 3.7691-0.0796 2.1742 0.32986 4.0541 1.3044 5.9889 1.1966 2.3756 3.4314 4.5528 5.9901 5.8357 1.1267 0.56495 1.9786 0.88415 5.0847 1.9053 3.3446 1.0996 5.3254 1.6676 9.612 2.7565 5.379 1.3664 8.8961 2.4258 11.51 3.4672 2.8493 1.1351 5.4861 2.7332 7.1835 4.3537 1.3036 1.2445 2.1198 2.5098 2.6711 4.1407 0.53877 1.5939 0.60743 2.1202 0.60743 4.6558 0 2.0845-0.0227 2.4322-0.22098 3.391-0.62283 3.0112-1.8273 5.296-3.7514 7.1158-2.8688 2.7133-7.2051 4.2944-13.772 5.0217-1.2351 0.13678-8.2147 0.26098-9.0582 0.16119zm41.214-62.03c-0.19133-0.19132-0.21924-0.33251-0.27613-1.3966-0.0957-1.7909-0.17462-2.0609-0.76916-2.6329l-0.49862-0.47972v-1.1736c0-1.1221 0.01-1.1836 0.22804-1.4016 0.46599-0.466 1.9001-0.19808 2.6052 0.48669 0.19713 0.19146 0.52695 0.70726 0.75854 1.1863 0.55901 1.1563 0.77196 2.2263 0.77355 3.8866 1e-3 1.2377-7e-3 1.2895-0.22682 1.5097-0.21589 0.21588-0.28544 0.22803-1.3049 0.22803-0.99858 0-1.0923-0.0155-1.2897-0.21284zm-457.34-16.852c-0.5618-0.20644-1.3252-0.99501-1.5218-1.5719-0.19291-0.56614-0.19291-1.5523 0-2.1184 0.21216-0.62267 0.96462-1.3745 1.5687-1.5674 0.42394-0.13536 20.471-0.1537 232.23-0.21244 222.39-0.0617 231.78-0.0576 232.26 0.10169 0.64237 0.21336 1.388 0.95008 1.6044 1.5852 0.19291 0.56614 0.19291 1.5523 0 2.1184-0.21216 0.62266-0.96462 1.3745-1.5687 1.5674-0.42399 0.13538-20.453 0.1526-232.31 0.19961-215.48 0.0478-231.87 0.0406-232.26-0.10215zm31.216-11.143c0-0.22504 1.3848-4.836 2.2985-7.6535 10.155-31.312 27.657-59.856 51.036-83.236 28.383-28.384 64.211-47.976 103.22-56.443 9.7917-2.1254 20.421-3.6143 30.557-4.28 8.5184-0.5595 19.353-0.5595 27.872 0 50.502 3.317 97.875 24.82 133.78 60.723 23.379 23.38 40.881 51.925 51.036 83.236 0.91374 2.8174 2.2985 7.4284 2.2985 7.6535 0 0.13915-0.70555 0.14957-8.654 0.1278l-8.654-0.0237-0.81392-2.5084c-10.58-32.606-29.622-61.677-55.413-84.594-22.155-19.687-48.549-33.985-76.972-41.696-20.219-5.4853-41.088-7.6239-62.2-6.3742-8.1818 0.48429-16.659 1.5481-24.772 3.1087-35.758 6.8787-68.506 23.643-95.215 48.742-2.3601 2.2179-7.0089 6.8795-9.0208 9.0456-19.299 20.778-33.587 45.043-42.258 71.768l-0.81392 2.5084-8.6539 0.0237c-7.9484 0.0218-8.6539 0.0113-8.6539-0.1278zm36.095 0.0592c-0.09454-0.15297 0.05059-0.73181 0.51284-2.0455 0.96524-2.7431 3.0793-8.1233 3.8343-9.7583 0.5688-1.2317 1.4151-1.8045 2.6662-1.8045 1.6225 0 2.7869 1.1725 2.7871 2.8064 8e-5 0.64878-0.0421 0.77643-1.152 3.4839-0.63365 1.5458-1.5393 3.8452-2.0126 5.1099l-0.86047 2.2994h-2.8595c-1.7731 0-2.8809-0.0347-2.9159-0.0913zm323.87-0.21062c-0.0746-0.16607-0.53505-1.3616-1.0233-2.6567-0.96557-2.5614-2.11-5.3914-2.8609-7.0751-0.45756-1.0259-0.47664-1.1017-0.47917-1.9046-3e-3 -0.92999 0.16366-1.3848 0.72607-1.9825 1.0465-1.1122 2.9602-1.1239 4.0498-0.0248 0.34443 0.34742 0.54095 0.69906 1.044 1.868 1.5121 3.5139 3.7937 9.4144 3.9847 10.305 0.10739 0.50079 0.0552 1.163-0.12236 1.5527l-0.10031 0.22015h-5.083zm-176.63-4.6316c-0.49761-0.14397-0.69922-0.49589-0.65882-1.15 0.0238-0.38563 1.0217-3.9194 3.2143-11.383 1.7489-5.9529 3.2341-10.991 3.3004-11.195 0.0664-0.20439 2.5634-4.0716 5.549-8.5937l5.4283-8.2221 0.0243-15.855c0.0231-15.098 0.0164-15.853-0.13936-15.819-0.09 0.01966-4.3235 0.93957-9.4077 2.0443-6.4168 1.3942-9.29 2.0556-9.3944 2.1623-0.0827 0.0846-2.5434 3.6865-5.4682 8.0043-2.9248 4.3178-5.4202 7.9445-5.5452 8.0595-0.17849 0.16408-0.33771 0.20904-0.74035 0.20904-0.44306 0-0.54994-0.037-0.78451-0.27157-0.2325-0.2325-0.27145-0.34275-0.27073-0.76647l9.3e-4 -0.49489 5.6439-8.3055c3.1041-4.568 5.7481-8.3826 5.8754-8.4767 0.15799-0.11681 2.9457-0.76542 8.7788-2.0425 4.701-1.0292 8.6622-1.8914 8.8028-1.916 0.14052-0.02455 0.25453-0.07124 0.25337-0.10376-1e-3 -0.03252-0.37474-0.21898-0.83016-0.41434-1.6008-0.6867-3.1184-1.8826-4.2059-3.3145-0.58541-0.77078-1.3918-2.4085-1.7153-3.4839-0.23898-0.79424-0.25159-0.93392-0.25159-2.7872s0.0126-1.9929 0.25159-2.7872c0.32357-1.0754 1.1299-2.7132 1.7153-3.4839 1.583-2.0843 3.8036-3.4752 6.3156-3.9558 0.88815-0.16993 2.9673-0.16993 3.8555 0 2.512 0.48063 4.7326 1.8715 6.3156 3.9558 0.5854 0.77078 1.3917 2.4085 1.7153 3.4839 0.23898 0.79424 0.25159 0.93392 0.25159 2.7872 0 1.8586-0.012 1.9906-0.25357 2.7872-0.28561 0.94182-0.92195 2.3254-1.4018 3.048-0.17622 0.26533-0.60339 0.81266-0.94929 1.2163l-0.62889 0.73388 0.3672-0.06417c0.20195-0.0353 3.1683-0.6721 6.5918-1.4151 4.3037-0.93406 6.2712-1.3988 6.3755-1.5059 0.0829-0.08519 2.5442-3.6876 5.4695-8.0054 2.9253-4.3178 5.4286-7.9443 5.5628-8.0591 0.18452-0.15762 0.36157-0.20869 0.72477-0.20904 0.41312-3.72e-4 0.52075 0.03968 0.76647 0.2854 0.24555 0.24555 0.28585 0.35363 0.28581 0.76647l-5e-5 0.4806-5.6454 8.3061c-3.105 4.5684-5.7493 8.3831-5.8762 8.4772-0.15869 0.11763-3.3066 0.8415-10.079 2.3176-5.4164 1.1806-9.8897 2.1863-9.9408 2.2348-0.0611 0.05795-0.10115 5.5193-0.11692 15.925l-0.024 15.837 0.30273 0.14411c0.16651 0.0793 4.584 1.9078 9.8167 4.0635 7.4297 3.0607 9.5508 3.9702 9.6821 4.1516 0.10019 0.13846 1.2905 4.6174 2.9471 11.09 1.6516 6.4526 2.8308 10.89 2.9066 10.938 0.0702 0.0444 0.65014 0.0824 1.2889 0.0844 1.9289 6e-3 2.3226 0.20489 2.3226 1.1728 0 0.44306-0.037 0.54994-0.27157 0.78451l-0.27157 0.27157-2.0743-5e-3c-2.231-6e-3 -2.589-0.0628-2.8745-0.45929-0.0989-0.13727-1.3226-4.7457-2.9919-11.267-1.5535-6.0692-2.8409-11.051-2.8609-11.07-0.0199-0.0193-4.2133-1.7554-9.3187-3.8579-7.5421-3.106-9.3038-3.8-9.3964-3.7018-0.13167 0.13971-10.091 15.26-10.243 15.55-0.0847 0.16237-5.3956 18.165-5.9503 20.17-0.22061 0.79745-0.24957 0.77245 0.89913 0.77562 1.5437 4e-3 1.9666 0.25617 1.9666 1.1714 0 0.44307-0.037 0.54995-0.27157 0.78451l-0.27158 0.27157-2.0743-8e-3c-1.1408-5e-3 -2.2075-0.0469-2.3704-0.094zm20.038-76.346c2.6624-0.87761 4.6342-2.9321 5.4072-5.6337 0.17911-0.62602 0.21265-0.96303 0.21265-2.1368s-0.0335-1.5108-0.21265-2.1368c-0.77196-2.6981-2.7247-4.7351-5.4072-5.6407-0.84762-0.28614-0.94151-0.29795-2.3691-0.29795s-1.5215 0.01181-2.3691 0.29795c-2.6826 0.90559-4.6352 2.9426-5.4072 5.6407-0.30828 1.0775-0.30828 3.1961 0 4.2736 0.72909 2.5482 2.6296 4.6293 5.0304 5.5083 1.0962 0.40136 1.6378 0.48292 2.9782 0.44854 1.1044-0.02832 1.3596-0.06691 2.1368-0.3231zm-106.64 72.806c-0.16118-0.16118-0.16118-12.251 0-12.412 0.0824-0.0824 0.94233-0.11149 3.2929-0.11149h3.1814l0.14462 0.20648c0.19727 0.28164 0.18156 0.59274-0.0412 0.81548-0.17661 0.17661-0.30968 0.18581-2.6876 0.18581-2.1505 0-2.5223 0.0205-2.6478 0.14599-0.12317 0.12316-0.1458 0.43913-0.14472 2.0207 9.3e-4 1.0311 0.0265 1.9688 0.0573 2.0837l0.056 0.20904h2.3118c2.1879 0 2.3218 0.01 2.4976 0.18581 0.10322 0.10323 0.18581 0.30968 0.18581 0.46453 0 0.15484-0.0826 0.3613-0.18581 0.46452-0.17585 0.17585-0.30968 0.18581-2.4976 0.18581h-2.3118l-0.056 0.20904c-0.0308 0.11497-0.0566 1.0526-0.0573 2.0837-1e-3 1.5816 0.0215 1.8975 0.14472 2.0207 0.12549 0.12548 0.4973 0.14599 2.6478 0.14599 2.3779 0 2.511 9e-3 2.6876 0.18581 0.22274 0.22274 0.23845 0.53383 0.0412 0.81547l-0.14462 0.20648h-3.1814c-2.3505 0-3.2105-0.0291-3.2929-0.11148zm14.753-0.0583c-1.2675-0.42322-2.1344-1.1422-2.6605-2.2066-0.3705-0.74964-0.50806-1.5223-0.31291-1.7574 0.14098-0.16987 0.74273-0.18486 0.95145-0.0237 0.0827 0.0639 0.1996 0.30403 0.25972 0.53368 0.24866 0.94999 0.8678 1.6715 1.8086 2.1076 0.50677 0.23491 0.65453 0.25852 1.6258 0.25979 1.73 2e-3 2.7359-0.35736 3.0724-1.0983 0.22916-0.50468 0.22873-1.1399-1e-3 -1.5167-0.33386-0.54756-0.77892-0.73089-3.9075-1.6096-2.2459-0.63084-2.9995-1.1061-3.5137-2.2163-0.31097-0.67138-0.38177-1.6576-0.16558-2.3061 0.36668-1.1 1.3106-1.9716 2.6036-2.404 1.018-0.34038 2.4835-0.36115 3.3982-0.0482 1.5215 0.52061 2.5871 1.7001 2.905 3.2156 0.093 0.44357 0.0856 0.51931-0.0675 0.68849-0.19599 0.21657-0.80545 0.26374-0.95564 0.074-0.0506-0.0639-0.18354-0.39543-0.29552-0.7368-0.49264-1.5017-1.4414-2.1388-3.2122-2.157-0.78618-8e-3 -1.0197 0.0262-1.5186 0.22273-1.4288 0.56295-2.0424 1.7624-1.5059 2.944 0.33805 0.74457 0.97156 1.0348 4.2042 1.9262 2.5426 0.7011 3.512 1.5622 3.512 3.1196 0 0.86036-0.4459 1.882-1.0003 2.2919-0.84417 0.62411-1.4779 0.78725-3.2269 0.83074-1.2619 0.0314-1.5637 0.0112-1.9975-0.13364zm13.523-0.0367c-0.12691-0.18118-0.14463-0.87416-0.14463-5.6564v-5.4499l-0.20904-0.056c-0.11497-0.0308-0.94464-0.0566-1.8437-0.0573-1.4647-1e-3 -1.6506-0.0189-1.7884-0.17117-0.17869-0.19746-0.20455-0.76411-0.0423-0.92638 0.0836-0.0836 1.2181-0.11149 4.5338-0.11149s4.4502 0.0279 4.5338 0.11149c0.17351 0.17351 0.1368 0.76585-0.0584 0.94252-0.14429 0.13058-0.41394 0.15395-1.7884 0.15503-0.89019 9.3e-4 -1.7126 0.0265-1.8276 0.0573l-0.20904 0.056v5.4499c0 6.1278 0.0294 5.8629-0.65033 5.8629-0.26782 0-0.39844-0.0533-0.50571-0.20648zm6.7489 0.095c-0.17688-0.17688-0.1385-0.85722 0.0584-1.0354 0.23046-0.20856 0.62634-0.19367 0.85206 0.032 0.23724 0.23725 0.24578 0.75308 0.0159 0.96111-0.19746 0.17869-0.7641 0.20454-0.92638 0.0423zm130.94-0.0345c-0.0835-0.0835-0.14599-0.30329-0.14599-0.5136 0-0.35155 0.0924-0.46591 2.1152-2.6179 3.442-3.6619 3.7-3.9542 3.98-4.5081 0.35501-0.70242 0.35158-1.3332-0.0117-2.1426-0.44987-1.0024-1.208-1.4556-2.4137-1.4429-1.1992 0.0126-2.201 0.99074-2.4164 2.3593-0.0831 0.5277-0.2714 0.74324-0.64946 0.74324-0.4872 0-0.63866-0.25534-0.58058-0.97878 0.0976-1.2163 0.97246-2.4844 2.0948-3.0365 0.59591-0.29317 0.66213-0.30479 1.7359-0.30479 1.3115 0 1.6664 0.12781 2.5192 0.90721 0.8545 0.78097 1.283 1.8514 1.2311 3.0751-0.0574 1.3521-0.37082 1.8017-3.7934 5.4421-1.4364 1.5279-1.6712 1.8168-1.5235 1.8748 0.096 0.0377 1.2656 0.0715 2.599 0.0751 2.2259 6e-3 2.437 0.0204 2.5781 0.17642 0.17869 0.19746 0.20455 0.76411 0.0423 0.92639-0.0828 0.0828-1.0246 0.11148-3.6631 0.11148-3.1049 0-3.57-0.0184-3.6976-0.14599zm15.323 0.0272c-0.9099-0.37182-1.5519-1.0321-2.0901-2.1495-0.64715-1.3437-0.79-2.0759-0.79-4.0492 0-1.5042 0.0267-1.8173 0.21413-2.5084 0.45464-1.6767 1.3458-3.041 2.307-3.5319 0.37635-0.19221 0.58376-0.23077 1.2415-0.23077 0.96786 0 1.4756 0.22325 2.1259 0.93477 1.0772 1.1786 1.683 3.0995 1.683 5.3363 0 2.8212-1.0389 5.2646-2.5673 6.0382-0.52487 0.26566-1.6574 0.35123-2.1241 0.1605zm1.3733-1.215c0.16443-0.0693 0.48935-0.33062 0.72205-0.58065 1.7704-1.9023 1.7519-6.9444-0.0324-8.8353-0.78946-0.83657-1.4317-0.87611-2.2277-0.13716-1.9161 1.7788-1.9943 7.0846-0.13298 9.0161 0.61085 0.63385 1.0822 0.78532 1.671 0.53703zm11.076 1.215c-0.90989-0.37182-1.5519-1.0321-2.0901-2.1495-0.64715-1.3437-0.79-2.0759-0.79-4.0492 0-1.5042 0.0267-1.8173 0.21413-2.5084 0.45464-1.6767 1.3458-3.041 2.307-3.5319 0.37635-0.19221 0.58376-0.23077 1.2415-0.23077 0.96787 0 1.4756 0.22325 2.1259 0.93477 1.0772 1.1786 1.683 3.0995 1.683 5.3363 0 2.8212-1.0389 5.2646-2.5673 6.0382-0.52488 0.26566-1.6574 0.35123-2.1241 0.1605zm1.3733-1.215c0.16444-0.0693 0.48935-0.33062 0.72205-0.58065 1.7704-1.9023 1.7519-6.9444-0.0324-8.8353-0.78946-0.83657-1.4317-0.87611-2.2277-0.13716-1.9161 1.7788-1.9943 7.0846-0.13297 9.0161 0.61085 0.63385 1.0822 0.78532 1.671 0.53703zm10.925 1.1803c-0.10272-0.12372-0.13653-1.0283-0.17395-4.655l-0.0465-4.5015-0.59448 1.1479c-0.73223 1.4139-0.78143 1.473-1.2249 1.473-0.39416 0-0.64283-0.19149-0.64204-0.49439 0-0.11132 0.59604-1.373 1.3239-2.8037l1.3234-2.6014 0.43272-0.028c0.77288-0.05 0.7286-0.43283 0.7286 6.2991 0 6.626 0.0315 6.3175-0.64423 6.3175-0.21676 0-0.40463-0.0598-0.48249-0.15355zm-255.57-10.06c-0.73186-0.22263-1.3942-0.76793-1.7465-1.4378-0.21589-0.41053-0.24878-0.58312-0.24953-1.309l-9.3e-4 -0.83614 1.1062-2.0904c2.6749-5.0548 4.8901-8.8416 5.455-9.3252 0.55002-0.47079 1.1506-0.64789 2.0208-0.5959 0.81384 0.0486 1.2719 0.24592 1.7987 0.77476 0.49921 0.50118 0.75614 1.0883 0.79885 1.8256 0.0479 0.82628-0.0815 1.175-1.0336 2.7865-1.1462 1.94-2.7668 4.8543-3.9679 7.1356-1.1772 2.2359-1.4993 2.6396-2.3636 2.963-0.53204 0.19906-1.3584 0.2486-1.8175 0.10896zm305.26-1.0744c-0.42208-0.16028-1.01-0.5778-1.2549-0.89121-0.0962-0.12307-0.5626-0.95539-1.0365-1.8496-1.1458-2.162-2.3973-4.3928-3.6894-6.5764-0.58313-0.98546-1.1617-2.0097-1.2858-2.2762-0.45685-0.98125-0.22429-2.3121 0.54475-3.1173 1.0421-1.0911 2.9674-1.1237 4.0038-0.0678 0.55012 0.56042 3.9156 6.3775 5.8116 10.045 0.65866 1.2741 0.6751 1.3226 0.67949 2.0028 8e-3 1.1693-0.55729 2.1035-1.5716 2.5996-0.55816 0.27297-1.6555 0.3382-2.2015 0.13086zm-293.7-18.78c-0.85136-0.30167-1.614-1.292-1.7525-2.2755-0.10785-0.76594 0.0942-1.3904 0.77181-2.3852 1.3534-1.987 5.1603-7.107 6.5154-8.7627 0.78644-0.96091 1.5689-1.3424 2.6008-1.268 0.77777 0.0561 1.4365 0.38038 1.9443 0.95732 0.51588 0.58608 0.70083 1.1788 0.64762 2.0756-0.0517 0.87158-0.15284 1.0749-1.1845 2.3808-1.4577 1.8453-2.6291 3.4003-4.162 5.5248-2.5463 3.529-2.3281 3.2653-2.9804 3.6016-0.52077 0.26842-0.67099 0.30262-1.3007 0.29613-0.39154-4e-3 -0.88647-0.0692-1.0998-0.1448zm281.84-0.86372c-0.74875-0.22777-1.1156-0.57402-2.1503-2.0298-1.1467-1.6133-4.0455-5.4555-5.2373-6.9417-1.378-1.7184-1.4817-1.9232-1.4831-2.9265-9.3e-4 -0.63587 0.0401-0.87343 0.21069-1.2196 0.49692-1.0086 1.455-1.6049 2.5826-1.6074 0.55471-1e-3 0.75265 0.0454 1.2658 0.29802 0.56644 0.27886 0.69218 0.40437 1.8261 1.8226 2.2456 2.8088 6.0105 7.9016 6.4377 8.7082 0.32903 0.62131 0.31003 1.7056-0.0425 2.4234-0.31189 0.63515-0.93432 1.2115-1.5262 1.4131-0.44388 0.15124-1.4748 0.18383-1.8834 0.0595zm-267.21-17.039c-0.86826-0.24472-1.55-0.88675-1.8917-1.7814-0.2153-0.56376-0.15462-1.618 0.12626-2.1935 0.26972-0.55268 2.6148-3.07 6.1403-6.5914 3.1685-3.1648 3.2156-3.1985 4.4694-3.1985 0.91454 0 1.4115 0.19122 1.9958 0.768 0.55941 0.55219 0.78955 1.1407 0.78955 2.0192 0 1.1736-0.14469 1.4009-2.1352 3.355-1.4856 1.4584-2.4725 2.4742-6.1601 6.3405-0.60051 0.62962-0.96876 0.93333-1.3349 1.101-0.60684 0.27781-1.4014 0.34985-1.9995 0.18127zm252.96-0.81008c-0.75863-0.18864-1.2304-0.55306-2.5022-1.9327-0.68948-0.74795-2.618-2.7135-4.2857-4.3678-1.7629-1.7489-3.1178-3.1683-3.2368-3.391-0.2968-0.55553-0.29698-1.9755 0-2.5307 0.33247-0.62226 0.65105-0.93684 1.2537-1.238 0.49444-0.24707 0.66717-0.28411 1.3252-0.28411 1.2414 0 1.3139 0.05285 4.774 3.4801 3.4836 3.4505 5.5384 5.6434 5.8649 6.259 0.1921 0.36223 0.2305 0.56456 0.23226 1.2237 2e-3 0.90907-0.20601 1.4562-0.76948 2.0196-0.63416 0.63415-1.8113 0.97194-2.6556 0.76201zm-236.41-15.132c-0.69106-0.21021-1.3508-0.78815-1.6934-1.4833-0.17157-0.3482-0.21057-0.58221-0.21057-1.2635 0-0.74872 0.0281-0.88693 0.26913-1.3218 0.30415-0.54889 0.55342-0.77504 3.2148-2.9166 3.8035-3.0606 6.8199-5.3005 7.4261-5.5144 0.94326-0.3328 2.1838-0.06938 2.887 0.61306 0.58998 0.57256 0.83369 1.1803 0.83369 2.079 0 1.2746-0.30765 1.7208-2.0886 3.0293-2.1214 1.5588-5.5114 4.2217-7.6945 6.0443-0.34853 0.29098-0.82631 0.59469-1.0617 0.67491-0.44268 0.15084-1.4739 0.18318-1.882 0.05904zm219.29-0.80816c-0.23197-0.08221-1.2543-0.83135-2.5549-1.8722-1.1925-0.95431-3.2761-2.5625-4.6302-3.5737-3.2363-2.4168-3.1015-2.2995-3.4437-2.9948-0.27693-0.56252-0.29328-0.65075-0.25382-1.3697 0.0481-0.87656 0.24525-1.3514 0.7854-1.8915 0.5236-0.52361 1.1616-0.77954 1.946-0.78062 0.79067-0.0011 1.1252 0.10312 1.8082 0.56327 1.786 1.2033 8.7938 6.6535 9.5309 7.4125 0.71705 0.73832 0.88507 2.1382 0.37652 3.1369-0.29954 0.58824-0.95808 1.1813-1.5271 1.3751-0.52956 0.18044-1.5204 0.17782-2.0373-0.0054zm-200.86-12.821c-0.21336-0.07561-0.58115-0.30754-0.81731-0.51541-1.1096-0.97671-1.2943-2.6639-0.42329-3.8663 0.28468-0.39301 2.0455-1.5368 5.4841-3.5623 3.6388-2.1435 5.6866-3.2361 6.2288-3.3235 1.3035-0.21016 2.4515 0.37683 3.074 1.5717 0.17862 0.34291 0.21773 0.56004 0.21759 1.2078 0 0.67519-0.0359 0.85705-0.24635 1.2542-0.37942 0.71598-0.81331 1.0505-2.7706 2.1362-2.0731 1.1499-5.2674 3.0241-6.9679 4.0884-1.6498 1.0326-1.9547 1.1609-2.7407 1.1531-0.35768-0.0035-0.82491-0.06829-1.0383-0.14389zm182.57-0.48712c-0.41019-0.10595-0.57757-0.19883-3.1988-1.7748-1.303-0.7834-3.5606-2.0821-5.0169-2.886-1.4563-0.80389-2.832-1.623-3.0571-1.8202-0.60006-0.52574-0.88655-1.2017-0.88043-2.0774 8e-3 -1.212 0.56801-2.0663 1.6898-2.5799 0.43847-0.20074 0.59828-0.2245 1.272-0.18914l0.77051 0.04044 1.8117 0.99098c3.1155 1.7042 7.4619 4.2436 8.733 5.1024 0.65075 0.43966 1.0428 0.95748 1.241 1.6392 0.38056 1.3091-0.31554 2.8043-1.5613 3.3536-0.4848 0.21377-1.3713 0.31248-1.8036 0.20082zm-162.34-10.486c-0.5828-0.20564-1.4073-1.047-1.61-1.643-0.0856-0.25182-0.1557-0.73638-0.1557-1.0768 0-0.5049 0.0525-0.72406 0.28506-1.1894 0.15679-0.31376 0.44777-0.70974 0.64664-0.87996 0.53211-0.45547 5.8338-2.7726 10.17-4.4451 1.5063-0.58093 1.7399-0.64547 2.3532-0.65037 0.58171-0.0046 0.76708 0.03698 1.2722 0.28565 1.0101 0.49727 1.5254 1.3475 1.5288 2.5227 3e-3 1.1943-0.56657 2.0736-1.6719 2.579-0.22902 0.10472-1.5452 0.63743-2.9248 1.1838-1.3796 0.54638-3.5118 1.4326-4.7382 1.9694s-2.5015 1.0941-2.8336 1.2385c-0.70777 0.30767-1.6304 0.3496-2.3222 0.10552zm141.45-0.56265c-0.35769-0.14578-1.2774-0.54032-2.0439-0.87675-1.9391-0.85112-4.2857-1.8076-6.6876-2.7258-1.1233-0.42942-2.2103-0.90082-2.4155-1.0475-0.73036-0.52215-1.2552-1.7654-1.1156-2.6425 0.22284-1.3996 1.2524-2.3597 2.6367-2.4587 0.58769-0.04205 0.70726-0.01179 2.2894 0.57941 4.3977 1.6433 9.8834 3.9992 10.459 4.4916 0.88439 0.757 1.182 2.1867 0.68042 3.2682-0.48422 1.044-1.2961 1.5874-2.4554 1.6435-0.59933 0.02898-0.78775-0.0034-1.3471-0.23136zm-119.41-7.4538c-1.3823-0.28404-2.2472-1.3568-2.2449-2.7844 2e-3 -1.0603 0.44675-1.9025 1.2558-2.3766 0.66642-0.39055 5.1994-1.6942 9.8556-2.8345 2.7208-0.66628 3.234-0.69942 4.1036-0.2649 1.002 0.50072 1.5026 1.3366 1.5041 2.5114 9.3e-4 0.6022-0.0407 0.78848-0.28415 1.2756-0.32067 0.64171-0.83319 1.1306-1.414 1.349-0.2152 0.08089-1.3433 0.3775-2.507 0.65915-2.4657 0.59682-5.332 1.3623-7.5 2.0029-1.7029 0.50318-2.1814 0.58308-2.769 0.46233zm97.904-0.47087c-2.1792-0.65218-7.1881-1.9551-9.8015-2.5495-1.3428-0.30545-1.8529-0.54672-2.3503-1.1119-0.45981-0.52237-0.66909-1.1033-0.66909-1.8573 0-0.86053 0.22397-1.4001 0.82927-1.9979 0.89408-0.88299 1.6254-1.0095 3.4551-0.59762 2.6656 0.59999 8.1508 2.0353 10.116 2.6471 1.1349 0.3533 1.6245 0.71034 2.0445 1.4908 0.28966 0.5383 0.31962 0.66476 0.31693 1.3377-2e-3 0.59206-0.0487 0.83773-0.22768 1.2078-0.66557 1.3758-2.0782 1.9202-3.7131 1.4309zm-75.97-4.8274c-0.59648-0.23516-1.2729-0.87634-1.541-1.4606-0.31209-0.68021-0.28704-1.7558 0.0572-2.4568 0.31038-0.63205 0.84625-1.1187 1.5022-1.3641 0.9171-0.34313 10.609-1.588 12.363-1.588 0.75963 0 0.90673 0.02952 1.4165 0.28426 2.0578 1.0283 1.9929 4.1046-0.10666 5.0623-0.36637 0.16711-0.82841 0.25317-1.9654 0.36608-2.3932 0.23765-5.1276 0.57512-7.6182 0.94021-2.9895 0.43824-3.4804 0.46413-4.108 0.21667zm52.279-0.28221c-2.1513-0.31525-5.9099-0.76031-8.1756-0.9681-1.8234-0.16722-2.3151-0.32227-2.9107-0.91788-0.52477-0.52477-0.73716-1.0201-0.78569-1.8323-0.0473-0.79118 0.0412-1.1494 0.43856-1.776 0.3377-0.53251 0.95226-0.95857 1.6417-1.1381 0.61269-0.15958 1.7028-0.08463 6.0756 0.41777 4.5217 0.5195 6.8194 0.87896 7.3838 1.1551 1.7106 0.83692 2.0506 3.1938 0.65625 4.549-0.53222 0.51725-1.25 0.80238-1.9815 0.7871-0.2919-0.0061-1.346-0.13055-2.3424-0.27657zm-29.497-1.9308c-0.68655-0.32927-1.0762-0.72947-1.3999-1.438-0.21888-0.47899-0.24357-0.62917-0.20623-1.2542 0.0674-1.1285 0.58239-1.9302 1.5428-2.4019l0.52785-0.25921h9.2905l0.49786 0.27576c2.1196 1.174 1.928 4.3131-0.31446 5.1521-0.49539 0.18535-0.68871 0.19288-4.9483 0.19281l-4.4327-7.4e-5z" stroke-width=".092905"/>
</svg>
